<svg xmlns="http://www.w3.org/2000/svg" xmlns:xlink="http://www.w3.org/1999/xlink" width="120" zoomAndPan="magnify" viewBox="0 0 90 30.000001" height="40" preserveAspectRatio="xMidYMid meet" version="1.2"><g id="bab3a2f8de"><path style=" stroke:none;fill-rule:nonzero;fill:#109dff;fill-opacity:1;" d="M 53.90625 4.257812 C 56.425781 3.398438 58.925781 3.34375 61.363281 4.335938 C 64.492188 5.609375 66.394531 7.925781 66.84375 11.324219 C 67.226562 14.203125 66.496094 16.734375 64.417969 18.828125 C 64.351562 18.894531 64.304688 18.984375 64.226562 19.097656 C 64.734375 19.550781 65.328125 19.683594 65.949219 19.621094 C 66.390625 19.574219 66.496094 19.734375 66.507812 20.136719 C 66.542969 21.726562 66.550781 21.726562 64.988281 21.726562 C 62.335938 21.726562 59.683594 21.730469 57.03125 21.726562 C 52.890625 21.71875 49.402344 19.058594 48.414062 15.050781 C 47.277344 10.429688 49.488281 5.980469 53.90625 4.257812 M 62.019531 8.707031 C 60.460938 7.082031 58.53125 6.695312 56.382812 6.988281 C 52.511719 7.515625 50.460938 11.6875 52.042969 15.261719 C 53.144531 17.753906 55.914062 19.105469 58.726562 18.5625 C 60.976562 18.128906 62.5625 16.871094 63.265625 14.675781 C 63.957031 12.511719 63.597656 10.503906 62.019531 8.707031 Z M 62.019531 8.707031 "/><path style=" stroke:none;fill-rule:nonzero;fill:#000000;fill-opacity:1;" d="M 32.117188 26.078125 C 31.042969 25.800781 30.113281 25.34375 29.285156 24.660156 C 28.953125 24.382812 28.847656 24.1875 29.199219 23.828125 C 29.546875 23.472656 29.828125 23.050781 30.113281 22.640625 C 30.328125 22.328125 30.5 22.332031 30.789062 22.566406 C 31.941406 23.503906 33.277344 23.917969 34.75 23.753906 C 36.835938 23.519531 37.953125 22.050781 37.589844 19.789062 C 36.972656 20.238281 36.363281 20.652344 35.628906 20.859375 C 32.648438 21.699219 29.660156 20.03125 28.828125 17.042969 C 27.929688 13.824219 29.335938 10.714844 32.214844 9.679688 C 34.023438 9.027344 35.75 9.230469 37.320312 10.410156 C 37.410156 10.480469 37.507812 10.539062 37.609375 10.605469 C 37.640625 10.566406 37.675781 10.546875 37.679688 10.519531 C 37.816406 9.640625 37.816406 9.640625 38.714844 9.640625 C 39.164062 9.640625 39.613281 9.648438 40.066406 9.640625 C 40.316406 9.636719 40.417969 9.730469 40.417969 9.992188 C 40.421875 11.695312 40.484375 13.390625 40.433594 15.09375 C 40.390625 16.691406 40.46875 18.292969 40.460938 19.894531 C 40.457031 20.65625 40.441406 21.425781 40.238281 22.171875 C 39.648438 24.390625 38.117188 25.597656 35.964844 26.125 C 34.695312 26.433594 33.421875 26.378906 32.117188 26.078125 M 37.621094 16.273438 C 37.726562 15.796875 37.769531 15.316406 37.730469 14.832031 C 37.640625 13.679688 37.191406 12.71875 36.113281 12.191406 C 34.976562 11.640625 33.816406 11.597656 32.753906 12.378906 C 31.546875 13.269531 31.347656 14.550781 31.550781 15.921875 C 31.683594 16.832031 32.148438 17.578125 32.9375 18.085938 C 34.5625 19.136719 37.042969 18.375 37.621094 16.273438 Z M 37.621094 16.273438 "/><path style=" stroke:none;fill-rule:nonzero;fill:#000000;fill-opacity:1;" d="M 19.660156 21.109375 C 17.425781 20.480469 16.007812 19.082031 15.460938 16.863281 C 14.597656 13.371094 16.84375 10.011719 20.398438 9.433594 C 23.472656 8.933594 26.3125 10.523438 27.253906 13.324219 C 28.457031 16.910156 26.28125 20.738281 22.472656 21.246094 C 21.53125 21.367188 20.617188 21.34375 19.660156 21.109375 M 24.625 16.023438 C 24.777344 15.53125 24.707031 15.042969 24.625 14.542969 C 24.277344 12.367188 21.949219 11.175781 19.972656 12.179688 C 18.625 12.863281 17.953125 14.398438 18.269531 16.089844 C 18.585938 17.792969 19.820312 18.851562 21.484375 18.851562 C 23.066406 18.851562 24.3125 17.757812 24.625 16.023438 Z M 24.625 16.023438 "/><path style=" stroke:none;fill-rule:nonzero;fill:#000000;fill-opacity:1;" d="M 74.785156 15.480469 C 74.785156 13.679688 74.796875 11.929688 74.777344 10.179688 C 74.773438 9.765625 74.90625 9.617188 75.320312 9.636719 C 75.886719 9.664062 76.457031 9.675781 77.019531 9.632812 C 77.53125 9.59375 77.734375 9.773438 77.664062 10.277344 C 77.648438 10.371094 77.636719 10.480469 77.726562 10.570312 C 77.902344 10.621094 77.984375 10.460938 78.09375 10.375 C 79.652344 9.199219 81.367188 9.007812 83.144531 9.699219 C 84.488281 10.222656 85.148438 11.351562 85.363281 12.742188 C 85.589844 14.199219 85.433594 15.667969 85.464844 17.132812 C 85.488281 18.265625 85.457031 19.402344 85.472656 20.535156 C 85.480469 20.898438 85.363281 21.042969 84.988281 21.03125 C 84.386719 21.007812 83.785156 21.003906 83.1875 21.035156 C 82.738281 21.054688 82.582031 20.90625 82.585938 20.441406 C 82.609375 18.40625 82.59375 16.371094 82.59375 14.335938 C 82.597656 13.847656 82.507812 13.382812 82.300781 12.9375 C 82.136719 12.589844 81.886719 12.335938 81.554688 12.152344 C 79.824219 11.1875 77.675781 12.417969 77.660156 14.394531 C 77.648438 16.394531 77.640625 18.394531 77.667969 20.394531 C 77.675781 20.910156 77.523438 21.070312 77.015625 21.035156 C 76.4375 20.996094 75.851562 21.011719 75.265625 21.03125 C 74.894531 21.046875 74.777344 20.898438 74.78125 20.535156 C 74.792969 18.867188 74.785156 17.199219 74.785156 15.480469 Z M 74.785156 15.480469 "/><path style=" stroke:none;fill-rule:nonzero;fill:#000000;fill-opacity:1;" d="M 9.03125 18.347656 C 10.765625 18.351562 12.449219 18.359375 14.136719 18.34375 C 14.542969 18.339844 14.703125 18.464844 14.679688 18.882812 C 14.652344 19.449219 14.664062 20.015625 14.675781 20.582031 C 14.683594 20.898438 14.578125 21.03125 14.246094 21.027344 C 11.144531 21.023438 8.042969 21.019531 4.941406 21.03125 C 4.464844 21.03125 4.515625 20.726562 4.515625 20.425781 C 4.515625 16.070312 4.515625 11.71875 4.515625 7.367188 C 4.515625 6.683594 4.527344 6 4.507812 5.316406 C 4.496094 4.898438 4.625 4.703125 5.078125 4.730469 C 5.679688 4.761719 6.28125 4.765625 6.878906 4.730469 C 7.34375 4.707031 7.472656 4.871094 7.472656 5.328125 C 7.457031 9.28125 7.460938 13.234375 7.46875 17.183594 C 7.46875 18.523438 7.273438 18.332031 8.632812 18.347656 C 8.75 18.351562 8.867188 18.347656 9.03125 18.347656 Z M 9.03125 18.347656 "/><path style=" stroke:none;fill-rule:nonzero;fill:#000000;fill-opacity:1;" d="M 45.453125 11.640625 C 45.390625 14.300781 45.445312 16.917969 45.46875 19.53125 C 45.484375 21.027344 45.476562 21.027344 43.980469 21.027344 C 42.582031 21.023438 42.578125 21.023438 42.582031 19.636719 C 42.582031 16.539062 42.582031 13.4375 42.589844 10.335938 C 42.589844 9.640625 42.59375 9.640625 43.285156 9.644531 C 43.96875 9.644531 44.652344 9.644531 45.457031 9.644531 C 45.457031 10.316406 45.457031 10.957031 45.453125 11.640625 Z M 45.453125 11.640625 "/><path style=" stroke:none;fill-rule:nonzero;fill:#000000;fill-opacity:1;" d="M 69.582031 10.578125 C 69.589844 9.566406 69.492188 9.648438 70.472656 9.644531 C 70.925781 9.640625 71.378906 9.671875 71.824219 9.636719 C 72.300781 9.601562 72.460938 9.761719 72.457031 10.253906 C 72.433594 12.753906 72.449219 15.257812 72.449219 17.761719 C 72.449219 18.679688 72.433594 19.597656 72.453125 20.511719 C 72.457031 20.90625 72.3125 21.046875 71.921875 21.03125 C 71.339844 21.007812 70.753906 21.003906 70.171875 21.035156 C 69.71875 21.058594 69.570312 20.90625 69.570312 20.441406 C 69.589844 17.171875 69.582031 13.898438 69.582031 10.578125 Z M 69.582031 10.578125 "/><path style=" stroke:none;fill-rule:nonzero;fill:#109dff;fill-opacity:1;" d="M 45.34375 7.738281 C 44.445312 8.519531 43.195312 8.328125 42.621094 7.746094 C 41.90625 7.019531 41.847656 5.882812 42.496094 5.15625 C 43.140625 4.433594 44.402344 4.3125 45.1875 4.898438 C 45.976562 5.492188 46.152344 6.59375 45.59375 7.445312 C 45.527344 7.539062 45.445312 7.625 45.34375 7.738281 Z M 45.34375 7.738281 "/><path style=" stroke:none;fill-rule:nonzero;fill:#109dff;fill-opacity:1;" d="M 72.382812 5.109375 C 72.964844 5.816406 73.03125 6.574219 72.640625 7.328125 C 72.25 8.082031 71.539062 8.308594 70.730469 8.234375 C 69.933594 8.160156 69.363281 7.679688 69.136719 6.929688 C 68.90625 6.160156 69.210938 5.285156 69.863281 4.855469 C 70.628906 4.351562 71.605469 4.441406 72.382812 5.109375 Z M 72.382812 5.109375 "/></g></svg>